# xmcd
#
# Track frame offsets:
#  150
#  11924
#  23774
#  35199
#  49947
#  60299
#  71057
#  81631
#  92212
#  103894
#  116618
#  127121
#  137800
#  148196
#  166156
#  178119
#
# Disc length: 2520 seconds
#
# Revision: 0
# Processed by: cddbd v1.5.2PL0 Copyright (c) Steve Scherf et al.
# Submitted via: AltoMP3_Maker 3.0
#
DISCID=f309d610
DTITLE=Various Artist - Country Classics Vol12
DYEAR=1900
DGENRE=
TTITLE0=Three Hearts In A Tangle
TTITLE1=Signed, Sealed, Delivered
TTITLE2=Smokey Joe's BBQ
TTITLE3=For The Good Times
TTITLE4=Lorena
TTITLE5=Train Of Love
TTITLE6=Honky Tonk Merry-Go-Round
TTITLE7=It's Ok
TTITLE8=So Doggone Lonesome
TTITLE9=I'll Meet You The Church On Sunday Mornin
TTITLE10=Hillbilly Waltz
TTITLE11=The Things I Might Have Been
TTITLE12=Don't Believe
TTITLE13=Deck Of Cards
TTITLE14=Twice The Lovin' (In Half You Time)
TTITLE15=You're My Sugar
EXTD=
EXTT0=
EXTT1=
EXTT2=
EXTT3=
EXTT4=
EXTT5=
EXTT6=
EXTT7=
EXTT8=
EXTT9=
EXTT10=
EXTT11=
EXTT12=
EXTT13=
EXTT14=
EXTT15=
PLAYORDER=
